<svg width="15" height="15" viewBox="0 0 15 15" fill="none" xmlns="http://www.w3.org/2000/svg">
<g clip-path="url(#clip0_12_177)">
<path d="M1.875 1.875C1.875 1.62636 1.97377 1.3879 2.14959 1.21209C2.3254 1.03627 2.56386 0.9375 2.8125 0.9375H7.11188C7.3605 0.937553 7.59891 1.03636 7.77469 1.21219L14.3372 7.77469C14.5129 7.95049 14.6117 8.18891 14.6117 8.4375C14.6117 8.68609 14.5129 8.92451 14.3372 9.10031L10.0378 13.3997C9.86201 13.5754 9.62359 13.6742 9.375 13.6742C9.12641 13.6742 8.88799 13.5754 8.71219 13.3997L2.14969 6.83719C1.97386 6.66141 1.87505 6.423 1.875 6.17438V1.875ZM5.15625 5.625C5.52921 5.625 5.8869 5.47684 6.15062 5.21312C6.41434 4.9494 6.5625 4.59171 6.5625 4.21875C6.5625 3.84579 6.41434 3.4881 6.15062 3.22438C5.8869 2.96066 5.52921 2.8125 5.15625 2.8125C4.78329 2.8125 4.4256 2.96066 4.16188 3.22438C3.89816 3.4881 3.75 3.84579 3.75 4.21875C3.75 4.59171 3.89816 4.9494 4.16188 5.21312C4.4256 5.47684 4.78329 5.625 5.15625 5.625Z" fill="white"/>
<path d="M1.21219 7.30594C1.03636 7.13016 0.937553 6.89175 0.9375 6.64313V1.875C0.68886 1.875 0.450403 1.97377 0.274587 2.14959C0.0987721 2.3254 0 2.56386 0 2.8125L0 7.11188C5.30976e-05 7.3605 0.09886 7.59891 0.274687 7.77469L6.83719 14.3372C7.01299 14.5129 7.25141 14.6117 7.5 14.6117C7.74859 14.6117 7.98701 14.5129 8.16281 14.3372L8.20312 14.2969L1.21219 7.30594Z" fill="white"/>
</g>
<defs>
<clipPath id="clip0_12_177">
<rect width="15" height="15" fill="white"/>
</clipPath>
</defs>
</svg>
