<svg width="16" height="13" viewBox="0 0 16 13" fill="none" xmlns="http://www.w3.org/2000/svg">
<g filter="url(#filter0_d_27_16)">
<mask id="path-1-inside-1_27_16" fill="white">
<path fill-rule="evenodd" clip-rule="evenodd" d="M4.5 8.5C4.5 8.36739 4.55268 8.24021 4.64645 8.14645C4.74021 8.05268 4.86739 8 5 8H15C15.1326 8 15.2598 8.05268 15.3536 8.14645C15.4473 8.24021 15.5 8.36739 15.5 8.5C15.5 8.63261 15.4473 8.75979 15.3536 8.85355C15.2598 8.94732 15.1326 9 15 9H5C4.86739 9 4.74021 8.94732 4.64645 8.85355C4.55268 8.75979 4.5 8.63261 4.5 8.5ZM2.5 4.5C2.5 4.36739 2.55268 4.24021 2.64645 4.14645C2.74021 4.05268 2.86739 4 3 4H13C13.1326 4 13.2598 4.05268 13.3536 4.14645C13.4473 4.24021 13.5 4.36739 13.5 4.5C13.5 4.63261 13.4473 4.75979 13.3536 4.85355C13.2598 4.94732 13.1326 5 13 5H3C2.86739 5 2.74021 4.94732 2.64645 4.85355C2.55268 4.75979 2.5 4.63261 2.5 4.5ZM0.5 0.5C0.5 0.367392 0.552678 0.240215 0.646447 0.146447C0.740215 0.0526785 0.867392 0 1 0H11C11.1326 0 11.2598 0.0526785 11.3536 0.146447C11.4473 0.240215 11.5 0.367392 11.5 0.5C11.5 0.632608 11.4473 0.759785 11.3536 0.853553C11.2598 0.947321 11.1326 1 11 1H1C0.867392 1 0.740215 0.947321 0.646447 0.853553C0.552678 0.759785 0.5 0.632608 0.5 0.5Z"/>
</mask>
<path fill-rule="evenodd" clip-rule="evenodd" d="M4.5 8.5C4.5 8.36739 4.55268 8.24021 4.64645 8.14645C4.74021 8.05268 4.86739 8 5 8H15C15.1326 8 15.2598 8.05268 15.3536 8.14645C15.4473 8.24021 15.5 8.36739 15.5 8.5C15.5 8.63261 15.4473 8.75979 15.3536 8.85355C15.2598 8.94732 15.1326 9 15 9H5C4.86739 9 4.74021 8.94732 4.64645 8.85355C4.55268 8.75979 4.5 8.63261 4.5 8.5ZM2.5 4.5C2.5 4.36739 2.55268 4.24021 2.64645 4.14645C2.74021 4.05268 2.86739 4 3 4H13C13.1326 4 13.2598 4.05268 13.3536 4.14645C13.4473 4.24021 13.5 4.36739 13.5 4.5C13.5 4.63261 13.4473 4.75979 13.3536 4.85355C13.2598 4.94732 13.1326 5 13 5H3C2.86739 5 2.74021 4.94732 2.64645 4.85355C2.55268 4.75979 2.5 4.63261 2.5 4.5ZM0.5 0.5C0.5 0.367392 0.552678 0.240215 0.646447 0.146447C0.740215 0.0526785 0.867392 0 1 0H11C11.1326 0 11.2598 0.0526785 11.3536 0.146447C11.4473 0.240215 11.5 0.367392 11.5 0.5C11.5 0.632608 11.4473 0.759785 11.3536 0.853553C11.2598 0.947321 11.1326 1 11 1H1C0.867392 1 0.740215 0.947321 0.646447 0.853553C0.552678 0.759785 0.5 0.632608 0.5 0.5Z" fill="white"/>
<path d="M0.5 0.5L-0.5 0.5L0.5 0.5ZM1 0V1V0ZM5.5 8.5C5.5 8.63261 5.44732 8.75978 5.35355 8.85355L3.93934 7.43934C3.65804 7.72064 3.5 8.10218 3.5 8.5H5.5ZM5.35355 8.85355C5.25978 8.94732 5.13261 9 5 9V7C4.60218 7 4.22065 7.15803 3.93934 7.43934L5.35355 8.85355ZM5 9H15V7H5V9ZM15 9C14.8674 9 14.7402 8.94732 14.6464 8.85355L16.0607 7.43934C15.7794 7.15803 15.3978 7 15 7V9ZM14.6464 8.85355C14.5527 8.75978 14.5 8.63261 14.5 8.5H16.5C16.5 8.10218 16.342 7.72065 16.0607 7.43934L14.6464 8.85355ZM14.5 8.5C14.5 8.36739 14.5527 8.24022 14.6464 8.14645L16.0607 9.56066C16.342 9.27935 16.5 8.89782 16.5 8.5H14.5ZM14.6464 8.14645C14.7402 8.05268 14.8674 8 15 8V10C15.3978 10 15.7794 9.84197 16.0607 9.56066L14.6464 8.14645ZM15 8H5V10H15V8ZM5 8C5.13261 8 5.25978 8.05268 5.35355 8.14645L3.93934 9.56066C4.22065 9.84197 4.60218 10 5 10V8ZM5.35355 8.14645C5.44732 8.24022 5.5 8.36739 5.5 8.5H3.5C3.5 8.89782 3.65804 9.27936 3.93934 9.56066L5.35355 8.14645ZM3.5 4.5C3.5 4.63261 3.44732 4.75979 3.35355 4.85355L1.93934 3.43934C1.65804 3.72064 1.5 4.10217 1.5 4.5H3.5ZM3.35355 4.85355C3.25979 4.94732 3.13261 5 3 5V3C2.60217 3 2.22064 3.15804 1.93934 3.43934L3.35355 4.85355ZM3 5H13V3H3V5ZM13 5C12.8674 5 12.7402 4.94732 12.6464 4.85355L14.0607 3.43934C13.7794 3.15804 13.3978 3 13 3V5ZM12.6464 4.85355C12.5527 4.75978 12.5 4.63261 12.5 4.5H14.5C14.5 4.10218 14.342 3.72065 14.0607 3.43934L12.6464 4.85355ZM12.5 4.5C12.5 4.36739 12.5527 4.24022 12.6464 4.14645L14.0607 5.56066C14.342 5.27935 14.5 4.89782 14.5 4.5H12.5ZM12.6464 4.14645C12.7402 4.05268 12.8674 4 13 4V6C13.3978 6 13.7794 5.84196 14.0607 5.56066L12.6464 4.14645ZM13 4H3V6H13V4ZM3 4C3.13261 4 3.25979 4.05268 3.35355 4.14645L1.93934 5.56066C2.22064 5.84196 2.60217 6 3 6V4ZM3.35355 4.14645C3.44732 4.24021 3.5 4.36739 3.5 4.5H1.5C1.5 4.89783 1.65804 5.27936 1.93934 5.56066L3.35355 4.14645ZM1.5 0.5C1.5 0.632608 1.44732 0.759785 1.35355 0.853553L-0.0606602 -0.56066C-0.341965 -0.279356 -0.5 0.102175 -0.5 0.5L1.5 0.5ZM1.35355 0.853553C1.25979 0.947321 1.13261 1 1 1L1 -1C0.602175 -1 0.220644 -0.841964 -0.0606602 -0.56066L1.35355 0.853553ZM1 1H11V-1H1V1ZM11 1C10.8674 1 10.7402 0.947322 10.6464 0.853553L12.0607 -0.56066C11.7794 -0.841965 11.3978 -1 11 -1V1ZM10.6464 0.853553C10.5527 0.759784 10.5 0.632606 10.5 0.5H12.5C12.5 0.102177 12.342 -0.279354 12.0607 -0.56066L10.6464 0.853553ZM10.5 0.5C10.5 0.367394 10.5527 0.240216 10.6464 0.146447L12.0607 1.56066C12.342 1.27935 12.5 0.897823 12.5 0.5H10.5ZM10.6464 0.146447C10.7402 0.0526781 10.8674 0 11 0V2C11.3978 2 11.7794 1.84196 12.0607 1.56066L10.6464 0.146447ZM11 0H1V2H11V0ZM1 0C1.13261 0 1.25979 0.0526786 1.35355 0.146447L-0.0606602 1.56066C0.220644 1.84196 0.602175 2 1 2V0ZM1.35355 0.146447C1.44732 0.240215 1.5 0.367392 1.5 0.5L-0.5 0.5C-0.5 0.897825 -0.341965 1.27936 -0.0606602 1.56066L1.35355 0.146447Z" fill="white" mask="url(#path-1-inside-1_27_16)"/>
</g>
<defs>
<filter id="filter0_d_27_16" x="-3.5" y="0" width="23" height="17" filterUnits="userSpaceOnUse" color-interpolation-filters="sRGB">
<feFlood flood-opacity="0" result="BackgroundImageFix"/>
<feColorMatrix in="SourceAlpha" type="matrix" values="0 0 0 0 0 0 0 0 0 0 0 0 0 0 0 0 0 0 127 0" result="hardAlpha"/>
<feOffset dy="4"/>
<feGaussianBlur stdDeviation="2"/>
<feComposite in2="hardAlpha" operator="out"/>
<feColorMatrix type="matrix" values="0 0 0 0 0 0 0 0 0 0 0 0 0 0 0 0 0 0 0.25 0"/>
<feBlend mode="normal" in2="BackgroundImageFix" result="effect1_dropShadow_27_16"/>
<feBlend mode="normal" in="SourceGraphic" in2="effect1_dropShadow_27_16" result="shape"/>
</filter>
</defs>
</svg>
