<svg width="13" height="14" viewBox="0 0 13 14" fill="none" xmlns="http://www.w3.org/2000/svg">
<path d="M1.1875 13.75C1.1875 13.75 0.125 13.75 0.125 12.625C0.125 11.5 1.1875 8.125 6.5 8.125C11.8125 8.125 12.875 11.5 12.875 12.625C12.875 13.75 11.8125 13.75 11.8125 13.75H1.1875ZM6.5 7C7.34538 7 8.15613 6.64442 8.7539 6.01149C9.35168 5.37855 9.6875 4.52011 9.6875 3.625C9.6875 2.72989 9.35168 1.87145 8.7539 1.23851C8.15613 0.605579 7.34538 0.25 6.5 0.25C5.65462 0.25 4.84387 0.605579 4.2461 1.23851C3.64832 1.87145 3.3125 2.72989 3.3125 3.625C3.3125 4.52011 3.64832 5.37855 4.2461 6.01149C4.84387 6.64442 5.65462 7 6.5 7Z" fill="white"/>
</svg>
