<svg width="15" height="14" viewBox="0 0 15 14" fill="none" xmlns="http://www.w3.org/2000/svg">
<path d="M9.64286 3.42857C9.64286 4.33788 9.30421 5.20996 8.70142 5.85294C8.09862 6.49592 7.28105 6.85714 6.42857 6.85714C5.57609 6.85714 4.75852 6.49592 4.15573 5.85294C3.55293 5.20996 3.21429 4.33788 3.21429 3.42857C3.21429 2.51926 3.55293 1.64719 4.15573 1.00421C4.75852 0.361224 5.57609 0 6.42857 0C7.28105 0 8.09862 0.361224 8.70142 1.00421C9.30421 1.64719 9.64286 2.51926 9.64286 3.42857ZM6.42857 5.71429C6.99689 5.71429 7.54194 5.47347 7.9438 5.04482C8.34566 4.61616 8.57143 4.03478 8.57143 3.42857C8.57143 2.82236 8.34566 2.24098 7.9438 1.81233C7.54194 1.38367 6.99689 1.14286 6.42857 1.14286C5.86025 1.14286 5.31521 1.38367 4.91334 1.81233C4.51148 2.24098 4.28571 2.82236 4.28571 3.42857C4.28571 4.03478 4.51148 4.61616 4.91334 5.04482C5.31521 5.47347 5.86025 5.71429 6.42857 5.71429ZM6.70286 13.7143C6.58018 13.3431 6.49785 12.9581 6.4575 12.5669H1.07143C1.0725 12.2857 1.23643 11.44 1.96286 10.6651C2.66143 9.92 3.97607 9.14286 6.42857 9.14286C6.70714 9.14286 6.97143 9.15238 7.22143 9.17143C7.46357 8.78171 7.75286 8.42857 8.08286 8.12229C7.58286 8.04229 7.03143 8.00152 6.42857 8C1.07143 8 0 11.4286 0 12.5714C0 13.7143 1.07143 13.7143 1.07143 13.7143H6.70286ZM10.5921 8.52571C10.785 7.82514 11.715 7.82514 11.9089 8.52571L11.955 8.69486C11.9838 8.79978 12.0342 8.89648 12.1027 8.97786C12.1711 9.05924 12.2558 9.12322 12.3504 9.1651C12.4451 9.20699 12.5473 9.2257 12.6497 9.21987C12.752 9.21405 12.8518 9.18382 12.9418 9.13143L13.0875 9.04686C13.6886 8.69714 14.3464 9.39886 14.0196 10.04L13.9393 10.1954C13.8904 10.2913 13.8622 10.3977 13.8568 10.5067C13.8515 10.6157 13.8691 10.7247 13.9083 10.8255C13.9476 10.9263 14.0075 11.0165 14.0837 11.0894C14.1598 11.1623 14.2504 11.2161 14.3486 11.2469L14.5082 11.2983C15.1639 11.504 15.1639 12.496 14.5082 12.7029L14.3475 12.752C14.2493 12.783 14.1589 12.837 14.0828 12.9101C14.0068 12.9832 13.947 13.0735 13.908 13.1745C13.869 13.2754 13.8516 13.3844 13.8572 13.4934C13.8628 13.6025 13.8912 13.7088 13.9404 13.8046L14.0196 13.96C14.3464 14.6011 13.6886 15.3029 13.0875 14.9543L12.9418 14.8686C12.8519 14.8164 12.7522 14.7863 12.65 14.7806C12.5477 14.7749 12.4456 14.7937 12.3511 14.8355C12.2566 14.8774 12.172 14.9413 12.1037 15.0226C12.0353 15.1038 11.9849 15.2004 11.9561 15.3051L11.9079 15.4754C11.715 16.1749 10.785 16.1749 10.5911 15.4754L10.545 15.304C10.516 15.1993 10.4653 15.1028 10.3968 15.0217C10.3283 14.9406 10.2436 14.8769 10.1489 14.8352C10.0543 14.7936 9.95213 14.775 9.84991 14.781C9.74769 14.787 9.64802 14.8173 9.55821 14.8697L9.4125 14.9543C8.81143 15.3029 8.15357 14.6011 8.48036 13.96L8.56071 13.8046C8.60963 13.7087 8.63781 13.6023 8.64316 13.4933C8.64852 13.3843 8.63093 13.2753 8.59168 13.1745C8.55243 13.0737 8.49252 12.9835 8.41634 12.9106C8.34016 12.8377 8.24964 12.7839 8.15143 12.7531L7.99286 12.7017C7.33607 12.496 7.33607 11.504 7.99286 11.2971L8.15143 11.248C8.24979 11.2173 8.34045 11.1635 8.41675 11.0905C8.49304 11.0175 8.55302 10.9272 8.59229 10.8262C8.63155 10.7252 8.64909 10.6162 8.64363 10.507C8.63817 10.3978 8.60983 10.2914 8.56071 10.1954L8.48143 10.04C8.15357 9.39886 8.81143 8.69714 9.4125 9.04571L9.55821 9.13143C9.64812 9.18361 9.74784 9.21366 9.85005 9.21937C9.95226 9.22509 10.0544 9.20633 10.1489 9.16446C10.2434 9.12259 10.328 9.05869 10.3963 8.97743C10.4647 8.89617 10.5151 8.79962 10.5439 8.69486L10.5921 8.52571ZM12.8571 12C12.8571 11.7749 12.8156 11.552 12.7348 11.344C12.654 11.136 12.5357 10.947 12.3864 10.7878C12.2372 10.6286 12.06 10.5024 11.865 10.4162C11.67 10.3301 11.4611 10.2857 11.25 10.2857C11.0389 10.2857 10.83 10.3301 10.635 10.4162C10.44 10.5024 10.2628 10.6286 10.1136 10.7878C9.96434 10.947 9.84596 11.136 9.76519 11.344C9.68443 11.552 9.64286 11.7749 9.64286 12C9.64286 12.4547 9.81218 12.8907 10.1136 13.2122C10.415 13.5337 10.8238 13.7143 11.25 13.7143C11.6762 13.7143 12.085 13.5337 12.3864 13.2122C12.6878 12.8907 12.8571 12.4547 12.8571 12Z" fill="white"/>
</svg>
